# xmcd
#
# Track frame offsets: 
#        150
#        11516
#        25264
#        34512
#        48539
#        59863
#        70783
#        83988
#        95117
#        107444
#        116622
#        126386
#        138532
#        152768
#        163785
#        176809
#        186977
#        203219
#
# Disc length: 2842 seconds
#
# Revision: 0
# Processed by: cddbd v1.5.2PL0 Copyright (c) Steve Scherf et al.
# Submitted via: ExactAudioCopy v0.99pb5
#
DISCID=070b1812
DTITLE=The Stanley Brothers and The Clinch Mountain Boys - The Essential
DTITLE=Gospel Masters
DYEAR=2005
DGENRE=Bluegrass
TTITLE0=How Can We Thank Him For What He Has Done
TTITLE1=White Dove
TTITLE2=My Lord's Gonna Set Me Free
TTITLE3=I'll Meet You In Church On Sunday Morning
TTITLE4=He Said If I Be Lifted Up
TTITLE5=Wings Of Angels
TTITLE6=Are You Afraid To Die
TTITLE7=Old Daniel Prayed
TTITLE8=This Wicked Path Of Sin
TTITLE9=Mother's Footsteps Guide Me On
TTITLE10=When Jesus Beckons Me Home
TTITLE11=Purple Robe
TTITLE12=I'll Not Be A Stranger
TTITLE13=Mother Left Me Her Bible
TTITLE14=Rock Of Ages
TTITLE15=I Saw The Light
TTITLE16=What A Friend
TTITLE17=I'm Ready To Go
EXTD=
EXTT0=
EXTT1=
EXTT2=
EXTT3=
EXTT4=
EXTT5=
EXTT6=
EXTT7=
EXTT8=
EXTT9=
EXTT10=
EXTT11=
EXTT12=
EXTT13=
EXTT14=
EXTT15=
EXTT16=
EXTT17=
PLAYORDER=
